<svg xmlns="http://www.w3.org/2000/svg" viewBox="0 0 760 300" role="img" aria-label="À esquerda, quatro operadores ligados por integrações bilaterais; à direita, os mesmos operadores implementando as mesmas regras públicas, sem intermediário central de fundos." font-family="Georgia, 'Times New Roman', serif">
<title>Integrações bilaterais versus um protocolo comum</title><desc>À esquerda, quatro operadores ligados por integrações bilaterais; à direita, os mesmos operadores implementando as mesmas regras públicas, sem intermediário central de fundos.</desc>
<rect x="0" y="0" width="760" height="300" fill="none"/>
<style>text{fill:#000} .m{font-family:ui-monospace,Menlo,Consolas,monospace} .b{fill:none;stroke:#000;stroke-width:1.4} .l{stroke:#000;stroke-width:1.2;fill:none} .d{stroke:#000;stroke-width:1;stroke-dasharray:3 3;fill:none} .n{font-weight:bold}</style>
<defs><marker id="a" markerWidth="9" markerHeight="9" refX="7" refY="4.5" orient="auto"><path d="M0,0 L8,4.5 L0,9 z" fill="#000"/></marker></defs>
<line class="l" x1="90" y1="70" x2="250" y2="70"/><line class="l" x1="90" y1="70" x2="90" y2="210"/><line class="l" x1="90" y1="70" x2="250" y2="210"/><line class="l" x1="250" y1="70" x2="90" y2="210"/><line class="l" x1="250" y1="70" x2="250" y2="210"/><line class="l" x1="90" y1="210" x2="250" y2="210"/><circle class="b" cx="90" cy="70" r="22"/><text x="90" y="75" text-anchor="middle" font-size="14">A</text><circle class="b" cx="250" cy="70" r="22"/><text x="250" y="75" text-anchor="middle" font-size="14">B</text><circle class="b" cx="90" cy="210" r="22"/><text x="90" y="215" text-anchor="middle" font-size="14">C</text><circle class="b" cx="250" cy="210" r="22"/><text x="250" y="215" text-anchor="middle" font-size="14">D</text><text x="170" y="268" text-anchor="middle" font-size="12.5">integrações bilaterais</text><text x="170" y="286" text-anchor="middle" font-size="9.5" class="m">n(n−1)/2 relações</text><line class="d" x1="380" y1="40" x2="380" y2="270"/><rect class="b" x="452" y="190" width="256" height="40" rx="4"/><text x="580" y="215" text-anchor="middle" font-size="12">regras públicas comuns</text><circle class="b" cx="478" cy="95" r="20"/><text x="478" y="100" text-anchor="middle" font-size="13">A</text><line class="l" x1="478" y1="115" x2="478" y2="190" marker-end="url(#a)"/><circle class="b" cx="546" cy="95" r="20"/><text x="546" y="100" text-anchor="middle" font-size="13">B</text><line class="l" x1="546" y1="115" x2="546" y2="190" marker-end="url(#a)"/><circle class="b" cx="614" cy="95" r="20"/><text x="614" y="100" text-anchor="middle" font-size="13">C</text><line class="l" x1="614" y1="115" x2="614" y2="190" marker-end="url(#a)"/><circle class="b" cx="682" cy="95" r="20"/><text x="682" y="100" text-anchor="middle" font-size="13">D</text><line class="l" x1="682" y1="115" x2="682" y2="190" marker-end="url(#a)"/><text x="580" y="250" text-anchor="middle" font-size="12.5">protocolo comum</text><text x="580" y="268" text-anchor="middle" font-size="9.5" class="m">n implementações</text>
</svg>
